<svg width="15" height="15" viewBox="0 0 15 15" fill="none" xmlns="http://www.w3.org/2000/svg">
<rect width="13.6016" height="13.6016" transform="translate(0.948486 0.500977)" fill="white"/>
<path fill-rule="evenodd" clip-rule="evenodd" d="M14.006 7.44933C14.006 6.98718 13.9645 6.54281 13.8875 6.11621H7.74927V8.63728H11.2568C11.1058 9.45196 10.6466 10.1422 9.95631 10.6044V12.2397H12.0626C13.295 11.105 14.006 9.43419 14.006 7.44933Z" fill="#4285F4"/>
<path fill-rule="evenodd" clip-rule="evenodd" d="M7.74904 13.8192C9.50875 13.8192 10.9841 13.2356 12.0624 12.2402L9.95608 10.6049C9.37247 10.9959 8.62593 11.227 7.74904 11.227C6.05154 11.227 4.61473 10.0805 4.10223 8.54004H1.9248V10.2287C2.99722 12.3587 5.20131 13.8192 7.74904 13.8192Z" fill="#34A853"/>
<path fill-rule="evenodd" clip-rule="evenodd" d="M4.10233 8.54024C3.97198 8.1492 3.89792 7.73149 3.89792 7.30193C3.89792 6.87237 3.97198 6.45466 4.10233 6.06361V4.375H1.92491C1.4835 5.25486 1.23169 6.25025 1.23169 7.30193C1.23169 8.35361 1.4835 9.349 1.92491 10.2289L4.10233 8.54024Z" fill="#FBBC05"/>
<path fill-rule="evenodd" clip-rule="evenodd" d="M7.74904 3.37635C8.70592 3.37635 9.56504 3.70518 10.2405 4.351L12.1098 2.48168C10.9811 1.43 9.50579 0.78418 7.74904 0.78418C5.20131 0.78418 2.99722 2.24468 1.9248 4.3747L4.10223 6.06331C4.61473 4.52283 6.05154 3.37635 7.74904 3.37635Z" fill="#EA4335"/>
</svg>
